<svg class="fig fig-akita " viewBox="0 0 160 138" role="img" aria-label="Criatura akita turquesa, sentada con seriedad concentrada" xmlns="http://www.w3.org/2000/svg">
  <ellipse class="fig-shadow" cx="80" cy="128" rx="50" ry="7.5" fill="rgba(25, 31, 31, 0.22)"/>
  <path class="akita-tail" d="M116 96 C138 92 142 70 128 64 C119 60 111 68 116 76"
    fill="none" stroke="#34736f" stroke-width="11" stroke-linecap="round"/>
  <path class="akita-body" d="M44 124 C38 96 46 70 80 66 C112 62 126 82 122 104 C119 120 102 126 78 126 C64 126 50 128 44 124 Z"
    fill="#4d9691"/>
  <path class="akita-chest" d="M62 124 C58 104 64 88 80 86 C94 84 100 96 98 110 C96 121 84 125 74 125 Z"
    fill="#fbf5e9" opacity="0.85"/>
  <rect class="akita-leg" x="58" y="100" width="9" height="26" rx="4.5" fill="#34736f"/>
  <rect class="akita-leg" x="88" y="100" width="9" height="26" rx="4.5" fill="#34736f"/>
  <g class="akita-head">
    <path class="akita-ear akita-ear--left" d="M46 30 L42 6 L62 20 Z" fill="#34736f"/>
    <path class="akita-ear akita-ear--right" d="M84 18 L102 4 L100 28 Z" fill="#34736f"/>
    <path d="M40 48 C36 26 54 14 74 16 C94 18 102 36 94 54 C86 70 46 68 40 48 Z" fill="#4d9691"/>
    <path class="akita-muzzle" d="M58 46 C58 38 66 34 74 36 C82 38 84 46 80 52 C76 58 60 56 58 46 Z"
      fill="#fbf5e9" opacity="0.9"/>
    <path d="M67 42 l6 0 M67 46 l0 0" stroke="none"/>
    <circle cx="70" cy="43" r="2.2" fill="#24231f"/>
    <path d="M52 36 l8 0" stroke="#24231f" stroke-width="1.8" stroke-linecap="round"/>
    <path d="M82 34 l8 0" stroke="#24231f" stroke-width="1.8" stroke-linecap="round"/>
    <path d="M50 30 l7 -2 M84 28 l7 2" stroke="#24231f" stroke-width="1.1" stroke-linecap="round" opacity="0.65"/>
  </g>
</svg>
