<svg class="branch-shadow " viewBox="0 0 620 420" aria-hidden="true" xmlns="http://www.w3.org/2000/svg">
  <g fill="rgba(25, 31, 31, 0.22)">
    <path d="M-10 60 C120 40 240 90 340 70 C440 50 540 110 630 90 L630 96 C530 118 430 60 340 80 C240 100 120 52 -10 70 Z"/>
    <path d="M180 76 C170 40 190 14 214 4 C216 30 202 58 188 78 Z"/>
    <path d="M300 74 C316 44 348 34 372 40 C360 66 330 80 306 82 Z"/>
    <path d="M430 68 C420 36 436 10 458 2 C462 28 450 54 438 72 Z"/>
    <path d="M92 62 C74 44 70 18 82 0 C98 16 102 44 98 64 Z"/>
    <path d="M520 92 C540 70 570 66 592 74 C578 96 548 104 524 100 Z"/>
  </g>
</svg>
