<svg class="branch-shadow " viewBox="0 0 520 480" aria-hidden="true" xmlns="http://www.w3.org/2000/svg">
  <g fill="rgba(39, 55, 52, 0.18)">
    <path d="M74 480 C82 350 130 220 250 120 C310 70 380 40 450 30 L452 38 C384 48 316 78 258 126 C142 224 96 352 88 480 Z"/>
    <path d="M100 400 C70 392 48 368 46 338 C80 344 102 368 106 396 Z"/>
    <path d="M120 342 C92 330 76 304 78 274 C110 284 128 310 126 338 Z"/>
    <path d="M148 284 C124 268 114 240 120 212 C150 226 164 254 158 280 Z"/>
    <path d="M186 230 C166 210 160 182 170 156 C196 174 206 202 198 226 Z"/>
    <path d="M234 180 C220 156 220 128 234 104 C256 126 260 156 248 178 Z"/>
    <path d="M290 138 C282 112 288 84 306 64 C322 90 320 120 304 138 Z"/>
    <path d="M352 104 C350 78 362 52 384 38 C394 66 386 96 366 110 Z"/>
    <path d="M130 420 C158 408 190 410 214 428 C188 446 156 446 132 432 Z"/>
    <path d="M158 358 C186 348 218 352 240 372 C212 388 180 386 158 370 Z"/>
    <path d="M196 298 C224 292 254 300 272 322 C242 334 212 328 194 310 Z"/>
    <path d="M244 244 C272 242 300 254 314 278 C284 286 256 276 240 256 Z"/>
    <path d="M300 196 C328 198 352 214 362 240 C331 242 306 228 296 206 Z"/>
    <path d="M364 156 C390 162 410 182 416 208 C386 206 364 188 358 166 Z"/>
  </g>
</svg>
