<svg class="branch-shadow " viewBox="0 0 520 460" aria-hidden="true" xmlns="http://www.w3.org/2000/svg">
  <g fill="rgba(25, 31, 31, 0.22)">
    <path d="M40 470 C60 340 120 240 220 160 C300 96 400 60 510 50 L512 58 C406 70 310 106 234 168 C140 246 84 344 66 470 Z"/>
    <path d="M210 170 C180 150 168 116 178 88 C206 102 220 138 218 166 Z"/>
    <path d="M320 108 C306 78 314 44 336 26 C350 54 342 90 328 110 Z"/>
    <path d="M140 260 C108 250 88 222 90 192 C120 200 142 228 146 256 Z"/>
    <path d="M420 74 C428 46 452 28 480 26 C474 56 450 76 426 80 Z"/>
  </g>
</svg>
