<svg class="branch-shadow " viewBox="0 0 640 420" aria-hidden="true" xmlns="http://www.w3.org/2000/svg">
  <g fill="rgba(39, 55, 52, 0.18)">
    <path d="M-10 330 C140 300 300 220 470 140 C530 112 590 92 650 84 L650 92 C592 100 534 120 476 148 C306 228 146 308 -10 338 Z"/>
    <ellipse cx="80" cy="306" rx="34" ry="15" transform="rotate(-18 80 306)"/>
    <ellipse cx="150" cy="284" rx="30" ry="13" transform="rotate(24 150 284)"/>
    <ellipse cx="222" cy="252" rx="33" ry="14" transform="rotate(-24 222 252)"/>
    <ellipse cx="292" cy="222" rx="28" ry="12" transform="rotate(20 292 222)"/>
    <ellipse cx="360" cy="190 " rx="30" ry="13" transform="rotate(-26 360 190)"/>
    <ellipse cx="425" cy="160" rx="25" ry="11" transform="rotate(18 425 160)"/>
    <ellipse cx="488" cy="132" rx="26" ry="11" transform="rotate(-28 488 132)"/>
    <ellipse cx="548" cy="108" rx="21" ry="9" transform="rotate(14 548 108)"/>
    <ellipse cx="602" cy="92" rx="17" ry="7.5" transform="rotate(-22 602 92)"/>
  </g>
</svg>
