<svg class="fig fig-cat fig-dani " viewBox="0 0 180 150" role="img" aria-label="Dani, gata amarilla estilizada con lentes irregulares y cola en forma de interrogación" xmlns="http://www.w3.org/2000/svg">
  <ellipse class="fig-shadow dani-ground-shadow" cx="88" cy="140" rx="55" ry="6.5" fill="rgba(25, 31, 31, 0.22)"/>
  <g class="cat-tail-group dani-tail-group">
    <path class="cat-tail dani-tail" d="M126 119 C155 119 169 95 160 75 C154 61 139 57 130 66 C123 73 126 84 136 84"
      fill="none" stroke="#9d7333" stroke-width="11" stroke-linecap="round"/>
    <path d="M137 84 C143 83 146 87 143 92" fill="none" stroke="#e6c96e"
      stroke-width="3" stroke-linecap="round" opacity="0.72"/>
  </g>
  <g class="dani-body-group">
    <path class="cat-body dani-body" d="M45 132 C35 118 36 98 43 84 C51 68 68 61 88 62 C108 62 127 72 134 89 C141 105 135 124 121 133 C106 141 56 141 45 132 Z"
      fill="#d3a83c"/>
    <path class="dani-body-light" d="M56 126 C50 108 56 83 75 72 C88 65 105 68 116 77 C98 76 82 84 75 99 C69 112 70 126 76 137 C65 137 59 134 56 126 Z"
      fill="#e6c96e" opacity="0.78"/>
    <path class="dani-back-mark" d="M106 69 C120 75 130 85 134 98" fill="none"
      stroke="#9d7333" stroke-width="2.4" stroke-linecap="round" opacity="0.52"/>
    <path class="dani-leg dani-leg--rear" d="M105 111 C110 121 109 132 105 137" fill="none"
      stroke="#9d7333" stroke-width="7" stroke-linecap="round"/>
    <path class="dani-leg dani-leg--front" d="M66 101 C62 113 62 128 65 137" fill="none"
      stroke="#d3a83c" stroke-width="7" stroke-linecap="round"/>
    <path class="cat-paw dani-paw dani-paw--front" d="M57 137 C62 133 70 133 75 137 C71 141 61 142 57 137 Z"
      fill="#e6c96e"/>
  </g>
  <g class="cat-head dani-head">
    <path class="cat-ear cat-ear--left dani-ear dani-ear--left" d="M34 35 L30 8 L50 25 Z"
      fill="#9d7333"/>
    <path class="cat-ear cat-ear--right dani-ear dani-ear--right" d="M65 22 L84 5 L84 32 Z"
      fill="#d3a83c" transform="rotate(8 75 20)"/>
    <path class="dani-face" d="M30 59 C24 43 30 26 46 19 C63 11 82 18 89 34 C96 49 87 65 68 70 C50 75 35 69 30 59 Z"
      fill="#e6c96e"/>
    <path class="dani-cheek" d="M31 55 C37 66 50 70 65 67" fill="none"
      stroke="#d3a83c" stroke-width="3" stroke-linecap="round" opacity="0.68"/>
    <g class="dani-eyes">
      <circle class="cat-eye dani-eye dani-eye--left" cx="45" cy="43" r="2" fill="#24231f"/>
      <circle class="cat-eye dani-eye dani-eye--right" cx="69" cy="41" r="2" fill="#24231f"/>
    </g>
    <g class="dani-glasses" fill="#fbf5e9" fill-opacity="0.13" stroke="#24231f"
      stroke-width="2.2" stroke-linecap="round" stroke-linejoin="round">
      <path class="dani-lens dani-lens--near" d="M34 34 C40 31 51 31 57 35 L56 49 C50 53 40 52 34 47 Z"/>
      <path class="dani-lens dani-lens--far" d="M59 34 C66 30 77 30 83 34 L82 47 C76 51 66 51 60 47 Z"/>
      <path class="dani-glasses-bridge" d="M57 38 C58 36 59 36 61 37" fill="none"/>
      <path class="dani-glasses-arm dani-glasses-arm--left" d="M34 37 L27 34" fill="none"/>
      <path class="dani-glasses-arm dani-glasses-arm--right" d="M83 36 L88 34" fill="none"/>
      <path class="dani-lens-glint" d="M39 36 L44 34 M66 34 L70 33" fill="none"
        stroke="#fbf5e9" stroke-width="1.2" opacity="0.78"/>
    </g>
    <path class="dani-nose" d="M56 52 L59 54 L56 56" stroke="#24231f" fill="none"
      stroke-width="1.4" stroke-linecap="round" stroke-linejoin="round"/>
    <path class="dani-whiskers" d="M34 54 L19 51 M34 59 L20 62 M76 53 L89 49 M75 58 L88 62"
      stroke="#24231f" fill="none" stroke-width="1" stroke-linecap="round" opacity="0.62"/>
  </g>
</svg>
