<svg class="fig fig-akita fig-diego " viewBox="0 0 180 158" role="img" aria-label="Diego, akita turquesa geométrico con lentes rectangulares bajos y postura protectora" xmlns="http://www.w3.org/2000/svg">
  <ellipse class="fig-shadow diego-ground-shadow" cx="91" cy="149" rx="58" ry="7" fill="rgba(25, 31, 31, 0.22)"/>
  <path class="akita-tail diego-tail" d="M128 101 C154 95 162 69 145 57 C132 48 117 57 121 70 C123 78 135 80 141 73"
    fill="none" stroke="#316a68" stroke-width="13" stroke-linecap="round" stroke-linejoin="round"/>
  <g class="diego-body-group">
    <path class="akita-body diego-body" d="M43 143 L40 107 C39 87 50 75 69 69 L111 69 C131 75 141 90 140 111 L135 143 Z"
      fill="#4d918b"/>
    <path class="diego-shoulder" d="M42 105 C51 89 66 82 85 82 C108 82 127 93 139 110"
      fill="none" stroke="#79aaa4" stroke-width="8" stroke-linecap="square" opacity="0.72"/>
    <path class="akita-chest diego-chest" d="M67 143 L65 91 L91 84 L111 96 L108 143 Z"
      fill="#fbf5e9" opacity="0.86"/>
    <path class="akita-leg diego-leg diego-leg--left" d="M52 112 L68 112 L67 145 L50 145 Z"
      fill="#316a68"/>
    <path class="akita-leg diego-leg diego-leg--right" d="M112 110 L128 112 L130 145 L112 145 Z"
      fill="#316a68"/>
    <path class="diego-paw diego-paw--left" d="M47 145 L70 145 L69 149 L46 149 Z" fill="#316a68"/>
    <path class="diego-paw diego-paw--right" d="M109 145 L133 145 L134 149 L110 149 Z" fill="#316a68"/>
  </g>
  <g class="akita-head diego-head">
    <path class="akita-ear akita-ear--left diego-ear diego-ear--left" d="M45 31 L44 5 L68 23 Z"
      fill="#316a68"/>
    <path class="akita-ear akita-ear--right diego-ear diego-ear--right" d="M103 22 L126 4 L124 35 Z"
      fill="#316a68"/>
    <path class="diego-face" d="M42 57 L46 29 C55 17 72 13 91 15 C108 16 121 25 126 40 L121 64 C107 74 87 77 65 72 C53 70 46 65 42 57 Z"
      fill="#4d918b"/>
    <path class="akita-muzzle diego-muzzle" d="M65 48 C69 41 78 38 88 39 C99 40 106 46 105 55 C102 65 90 68 78 64 C69 62 64 56 65 48 Z"
      fill="#fbf5e9" opacity="0.92"/>
    <g class="diego-eyes">
      <circle class="diego-eye diego-eye--left" cx="68" cy="42" r="2" fill="#24231f"/>
      <circle class="diego-eye diego-eye--right" cx="99" cy="42" r="2" fill="#24231f"/>
    </g>
    <g class="diego-glasses" fill="#fbf5e9" fill-opacity="0.1" stroke="#24231f"
      stroke-width="2.4" stroke-linecap="round" stroke-linejoin="round">
      <path class="diego-lens diego-lens--left" d="M54 34 L77 34 L78 49 L55 50 Z"/>
      <path class="diego-lens diego-lens--right" d="M84 34 L109 35 L108 50 L84 49 Z"/>
      <path class="diego-glasses-bridge" d="M78 39 L84 39" fill="none"/>
      <path class="diego-glasses-arm diego-glasses-arm--left" d="M54 38 L46 35" fill="none"/>
      <path class="diego-glasses-arm diego-glasses-arm--right" d="M109 39 L121 37" fill="none"/>
      <path class="diego-lens-glint" d="M58 37 L65 36 M88 37 L95 37" fill="none"
        stroke="#fbf5e9" stroke-width="1.2" opacity="0.72"/>
    </g>
    <path class="diego-brow diego-brow--left" d="M58 29 L73 28" stroke="#24231f" stroke-width="1.6" stroke-linecap="square"/>
    <path class="diego-brow diego-brow--right" d="M91 28 L107 30" stroke="#24231f" stroke-width="1.6" stroke-linecap="square"/>
    <path class="diego-nose" d="M80 50 L89 50 L85 55 Z" fill="#24231f"/>
    <path class="diego-mouth" d="M85 55 L85 59 M85 59 L79 61 M85 59 L91 61" stroke="#24231f"
      stroke-width="1.3" stroke-linecap="round" fill="none"/>
  </g>
</svg>
