<svg class="shadow-shelter " viewBox="0 0 300 160" aria-hidden="true" xmlns="http://www.w3.org/2000/svg">
  <g fill="rgba(22, 37, 39, 0.4)">
    <path d="M20 160 C24 110 60 70 118 52 C150 42 150 42 182 52 C240 70 276 110 280 160 L262 160 C254 118 224 86 178 72 C154 64 146 64 122 72 C76 86 46 118 38 160 Z"/>
    <path d="M118 54 C110 40 112 24 124 14 C134 26 132 44 126 56 Z"/>
    <path d="M176 54 C184 40 182 24 170 14 C160 26 162 44 168 56 Z"/>
    <path d="M146 46 C144 30 148 16 150 8 C154 16 156 32 152 46 Z"/>
  </g>
</svg>
