<?xml version="1.0" encoding="UTF-8"?>
<svg class="character-shadow character-shadow--dani " viewBox="0 0 220 170" aria-hidden="true" xmlns="http://www.w3.org/2000/svg">
  <g fill="rgba(15, 21, 23, 0.42)" opacity="0.9">
    <path d="M27 154 C28 119 49 89 82 78 C112 68 143 80 153 103 C160 120 153 141 137 153 Z"/>
    <path d="M50 92 C40 72 48 48 69 38 C89 29 111 38 118 57 C124 75 111 91 91 95 Z"/>
    <path d="M47 56 L42 26 L66 45 Z M88 41 L110 18 L110 51 Z"/>
    <path d="M139 109 C176 109 199 86 193 59 C188 38 164 31 151 45 C141 56 147 69 160 69 L160 78 C137 78 126 55 139 36 C158 10 199 21 207 53 C217 92 186 126 145 128 Z"/>
    <path d="M187 51 C193 35 207 25 219 26 C216 41 203 52 187 57 Z"/>
    <path d="M198 82 C210 73 222 72 232 78 C223 89 210 92 198 88 Z"/>
  </g>
</svg>
