<?xml version="1.0" encoding="UTF-8"?>
<svg class="fig fig-akita fig-diego character character--angle-front character--facing-front character--reduced-motion diego--happy character--state-happy" viewBox="0 0 180 158"
  role="img"
  data-character="diego" data-baseline="149"
  data-angle="front" data-facing="front" data-state="happy"
  data-reduced-motion="true" data-interactive="false"

  aria-label="Diego, akita alto turquesa con urajiro crema, lentes rectangulares y lazo"
  xmlns="http://www.w3.org/2000/svg">
<style type="text/css"><![CDATA[
.fig{width:100%;height:auto;overflow:visible;}.fig-dani,.fig-diego{overflow:visible;isolation:isolate;}.cat-tail-group,.diego-tail-group,.akita-head,.cat-head,.akita-ear,.dani-body-group,.dani-head,.dani-ear,.dani-glasses,.dani-eyes,.dani-paw,.dani-bow,.diego-body-group,.diego-head,.diego-ear,.diego-glasses,.diego-eyes,.diego-paw,.diego-bow,.plant-leaf,.plant-leaf-shape,.plant-stem,.plant-sprout,.plant-sprout-leaf,.plant-waterline,.plant-bubble,.plant-state-face,.plant-recovery-mark,.cube-solid{transform-box:fill-box;transform-origin:center;}.cat-tail-group{transform-origin:center bottom;}.diego-tail-group{transform-origin:center bottom;}.akita-head{transform-origin:center bottom;}.dani-head,.diego-head,.dani-body-group,.diego-body-group,.dani-glasses,.diego-glasses,.dani-ear,.diego-ear,.dani-leg,.diego-leg,.dani-paw,.diego-paw,.dani-eye,.diego-eye{transition:transform 420ms cubic-bezier(0.33,0.02,0.2,1),opacity 220ms ease;}.dani-head{transform-origin:center bottom;}.dani-ear--left,.diego-ear--left{transform-origin:right bottom;}.dani-ear--right,.diego-ear--right{transform-origin:left bottom;}.dani-paw--front,.diego-paw--left{transform-origin:center right;}.diego-glasses,.dani-glasses{transform-origin:center;}.character--silhouette{color:#29291f;}.character--silhouette [data-part="ground-shadow"],.character--silhouette [data-detail]{display:none;}.character--silhouette [data-silhouette="true"]{fill:currentColor !important;stroke:currentColor !important;opacity:1 !important;}.character--small [data-detail="micro"],.character--small [data-part="whiskers"]{display:none;}.character--small .dani-glasses,.character--small .diego-glasses{stroke-width:3.25;}.character--small .dani-eye,.character--small .diego-eye{transform:scale(1.18);}.dani--profile .dani-head{transform:translate(-5px,1px) rotate(-7deg);}.dani--profile .dani-lens--far,.dani--profile .dani-eye--right,.dani--profile .dani-glasses-arm--right{opacity:0.32;}.diego--profile .diego-head{transform:translateX(-4px) rotate(-3deg);}.diego--profile .diego-lens--right,.diego--profile .diego-eye--right,.diego--profile .diego-glasses-arm--right{opacity:0.3;}.dani--curious .dani-head{transform:translate(-3px,-5px) rotate(-8deg);}.dani--curious .dani-leg--front,.dani--curious .dani-paw--front{transform:translate(-3px,-5px) rotate(-6deg);}.dani--curious .dani-tail-group{transform:rotate(7deg);}.dani--surprised .dani-head{transform:translateY(-7px) rotate(2deg);}.dani--surprised .dani-ear--left{transform:rotate(-13deg);}.dani--surprised .dani-ear--right{transform:rotate(12deg);}.dani--surprised .dani-eye{transform:scale(1.45);}.dani--surprised .dani-glasses{transform:translateY(-1px) scale(1.035);}.dani--hiding .dani-body-group{transform:translateY(11px) scaleY(0.9);}.dani--hiding .dani-head{transform:translate(8px,17px) rotate(-4deg);}.dani--hiding .dani-tail-group{transform:translateY(8px) rotate(-9deg);}.dani--hiding .dani-ground-shadow{transform:scaleX(0.82);transform-origin:center;}.dani--worried .dani-head{transform:translateY(5px) rotate(7deg);}.dani--worried .dani-ear--left{transform:rotate(17deg);}.dani--worried .dani-ear--right{transform:rotate(-14deg);}.dani--worried .dani-glasses{transform:translateY(2px) rotate(2deg);}.dani--delighted .dani-head{transform:translate(-1px,-4px) rotate(4deg);}.dani--delighted .dani-leg--front,.dani--delighted .dani-paw--front{transform:translate(-2px,-4px) rotate(-5deg);}.dani--delighted .dani-tail-group{transform:rotate(10deg);}.dani--delighted .dani-eye{transform:scaleY(0.72);}.dani--observing .dani-head{transform:translate(-4px,-2px) rotate(-11deg);}.dani--observing .dani-glasses{transform:translate(-1px,1px) scale(1.025);}.dani--observing .dani-body-group,.dani--observing .dani-tail-group{transform:rotate(-1.5deg);}.dani--sleeping,.cat--sleeping{transform:scaleY(0.94);transform-origin:bottom;}.dani--sleeping .dani-head,.cat--sleeping .dani-head{transform:translate(8px,12px) rotate(10deg);}.dani--sleeping .dani-eye,.cat--sleeping .dani-eye{transform:scaleY(0.18);}.dani--sleeping .dani-tail-group,.cat--sleeping .dani-tail-group{transform:translate(-5px,8px) rotate(-12deg);}.diego--serious .diego-head{transform:translateY(-2px);}.diego--serious .diego-brow--left{transform:rotate(3deg);}.diego--serious .diego-brow--right{transform:rotate(-3deg);}.diego--concerned .diego-head{transform:translateY(3px) rotate(-3deg);}.diego--concerned .diego-ear--left{transform:rotate(-17deg);}.diego--concerned .diego-ear--right{transform:rotate(16deg);}.diego--concerned .diego-glasses{transform:translateY(2px);}.diego--protecting .diego-body-group,.akita--guard .diego-body-group{transform:scaleX(1.055);}.diego--protecting .diego-head,.akita--guard .diego-head{transform:translateY(-4px) scale(1.015);}.diego--protecting .diego-paw--left,.akita--guard .diego-paw--left{transform:translateX(-4px);}.diego--protecting .diego-paw--right,.akita--guard .diego-paw--right{transform:translateX(4px);}.diego--embarrassed .diego-head{transform:translateY(5px) rotate(6deg);}.diego--embarrassed .diego-ear--left{transform:rotate(14deg);}.diego--embarrassed .diego-ear--right{transform:rotate(-19deg);}.diego--embarrassed .diego-glasses{transform:translateY(4px) rotate(3deg);}.diego--recoveringGlasses .diego-glasses,.diego--recovering-glasses .diego-glasses{transform:translate(-8px,8px) rotate(-11deg);}.diego--recoveringGlasses .diego-paw--left,.diego--recovering-glasses .diego-paw--left{transform:translate(12px,-20px) rotate(-21deg);}.diego--recoveringGlasses .diego-head,.diego--recovering-glasses .diego-head{transform:rotate(-4deg);}.diego--proud .diego-body-group{transform:scaleX(1.035) translateY(-1px);}.diego--proud .diego-head{transform:translateY(-5px) rotate(1.5deg);}.diego--proud .diego-ear--left{transform:rotate(-4deg);}.diego--proud .diego-ear--right{transform:rotate(4deg);}.diego--proud .diego-chest{opacity:1;}.character--size-small{width:4.5rem;}.character--size-medium{width:8.5rem;}.character--size-large{width:12rem;}.character--interactive{cursor:pointer;touch-action:manipulation;border-radius:0.25rem;}.character--interactive:focus-visible{outline:2px solid #29291f;outline-offset:4px;}.character--interactive:hover .dani-glasses,.character--interactive:hover .diego-glasses{transform:translateY(-1px);}.character--reduced-motion,.character--reduced-motion *,.character--reduced-motion *::before,.character--reduced-motion *::after{animation:none !important;scroll-behavior:auto !important;transition-duration:0.01ms !important;}.dani--profile .dani-head,.diego--profile .diego-head{transform:none;}.dani--profile .dani-lens--near,.diego--profile .diego-lens--left{opacity:1;}.dani-sleep-eye,.dani-worry-brows,.diego-blush{opacity:0;transition:opacity 220ms ease;}.dani--sleeping .dani-eye,.cat--sleeping .dani-eye{opacity:0;}.dani--sleeping .dani-sleep-eye,.cat--sleeping .dani-sleep-eye,.dani--worried .dani-worry-brows,.diego--embarrassed .diego-blush{opacity:1;}.dani--idle:not(.character--reduced-motion) .dani-tail-group{animation:tailFlick 12s ease-in-out infinite;}.diego--idle:not(.character--reduced-motion) .diego-ear--right{animation:earTwitch 16s ease-in-out infinite;}.dani--curious .dani-bow{transform:translateY(-2px) rotate(-2deg);}.dani--surprised .dani-mouth{stroke-width:1.8;}.diego--serious .diego-bow,.diego--focused .diego-bow,.diego--protecting .diego-bow{transform:translateY(-2px);}.diego--concerned .diego-brow--left{transform:rotate(-7deg);}.diego--concerned .diego-brow--right{transform:rotate(7deg);}.dani--happy .dani-head{transform:translateY(-4px) rotate(4deg);}.dani--happy .dani-eye{transform:scaleY(0.72);}.dani--happy .dani-tail-group{transform:rotate(10deg);}.dani--proud .dani-head{transform:translateY(-6px) rotate(-2deg);}.dani--proud .dani-bow{transform:translateY(-3px) scale(1.04);}.dani--watering .dani-head{transform:translate(-3px,3px) rotate(-8deg);}.dani--watering .dani-leg--front,.dani--watering .dani-paw--front{transform:translate(8px,-9px) rotate(-14deg);}.dani--watching .dani-head{transform:translate(-4px,-2px) rotate(-10deg);}.dani--watching .dani-glasses{transform:translate(-1px,1px) scale(1.025);}.dani--reactingToRain .dani-head{transform:translateY(5px) rotate(-4deg);}.dani--reactingToRain .dani-ear--left,.dani--reactingToRain .dani-ear--right{transform:rotate(10deg);}.dani--reactingToRain .dani-tail-group{transform:translateY(6px) rotate(-8deg);}.dani--reactingToWind .dani-head{transform:translate(5px,1px) rotate(8deg);}.dani--reactingToWind .dani-glasses{transform:translate(5px,-2px) rotate(6deg);}.dani--reactingToWind .dani-tail-group{transform:rotate(16deg);}.dani--reactingToHeat .dani-body-group{transform:translateY(5px) scaleY(0.96);}.dani--reactingToHeat .dani-head{transform:translateY(7px) rotate(5deg);}.dani--reactingToHeat .dani-ear--left{transform:rotate(14deg);}.dani--reactingToHeat .dani-ear--right{transform:rotate(-14deg);}.diego--focused .diego-head{transform:translateY(-2px);}.diego--focused .diego-brow--left{transform:rotate(3deg);}.diego--focused .diego-brow--right{transform:rotate(-3deg);}.diego--happy .diego-head{transform:translateY(-4px) rotate(2deg);}.diego--happy .diego-tail-group{transform:rotate(8deg);}.diego--surprised .diego-head{transform:translateY(-6px);}.diego--surprised .diego-ear--left{transform:rotate(-11deg);}.diego--surprised .diego-ear--right{transform:rotate(11deg);}.diego--surprised .diego-eye{transform:scale(1.38);}.diego--planting .diego-head{transform:translate(-3px,5px) rotate(-7deg);}.diego--planting .diego-paw--left{transform:translate(10px,-14px) rotate(-16deg);}.diego--watching .diego-head{transform:translate(-2px,1px) rotate(-4deg);}.diego--watching .diego-glasses{transform:translateY(1px);}.diego--recoveringGlasses .diego-glasses{transform:translate(-8px,8px) rotate(-11deg);}.diego--reactingToRain .diego-body-group{transform:translateY(3px);}.diego--reactingToRain .diego-head{transform:translateY(4px) rotate(-2deg);}.diego--reactingToRain .diego-ear--left,.diego--reactingToRain .diego-ear--right{transform:rotate(8deg);}.diego--reactingToWind .diego-head{transform:translate(4px,1px) rotate(5deg);}.diego--reactingToWind .diego-glasses{transform:translate(9px,-5px) rotate(9deg);}.diego--reactingToWind .diego-ear--right{transform:rotate(18deg);}.diego--reactingToHeat .diego-body-group{transform:translateY(4px) scaleY(0.98);}.diego--reactingToHeat .diego-head{transform:translateY(6px);}.diego--reactingToHeat .diego-ear--left{transform:rotate(13deg);}.diego--reactingToHeat .diego-ear--right{transform:rotate(-13deg);}@media (prefers-reduced-motion:reduce){.fig-dani *,.fig-diego *{animation:none !important;transition-duration:0.01ms !important;}}
]]></style>
  <ellipse class="fig-shadow diego-ground-shadow" data-part="ground-shadow"
    cx="90" cy="149" rx="59" ry="6" fill="rgba(23, 29, 29, 0.28)"/>

  <g class="diego-tail-group" data-part="tail">
    <path class="akita-tail diego-tail" data-silhouette="true" d="M127 119 C151 120 162 101 156 84 C151 70 138 67 130 76 C123 84 128 94 138 94 C147 93 150 83 145 78" fill="none"
      stroke="#285451" stroke-width="14" stroke-linecap="round" stroke-linejoin="round"/>
    <path class="diego-tail-tip" data-detail="coat" d="M142 76 C148 79 150 86 146 91"
      fill="none" stroke="#faf3e5" stroke-width="4" stroke-linecap="round" opacity="0.72"/>
  </g>
  <g class="diego-body-group" data-part="body" data-angle-art="front">
    <path class="akita-body diego-body" data-silhouette="true"
      d="M43 145 L44 102 C44 80 62 65 89 64 C117 64 135 80 136 102 L137 145 C113 151 68 151 43 145 Z"
      fill="#3f776f"/>
    <path class="diego-neck" data-part="neck" data-silhouette="true"
      d="M51 61 C61 51 75 47 90 47 C106 47 120 52 130 62 L127 91 C111 102 69 102 53 91 Z"
      fill="#3f776f"/>
    <path class="akita-chest diego-chest" data-part="chest" data-detail="coat"
      d="M70 76 C78 68 87 67 90 73 C94 67 104 68 111 76 L106 143 L74 143 Z"
      fill="#faf3e5" opacity="0.92"/>
    <path class="diego-shoulder diego-shoulder--left" data-detail="coat" d="M49 91 C58 82 68 80 77 85 L68 113 C57 110 49 103 49 91 Z"
      fill="#6e9991" opacity="0.62"/>
    <path class="diego-shoulder diego-shoulder--right" data-detail="coat" d="M131 91 C122 82 112 80 103 85 L112 113 C123 110 131 103 131 91 Z"
      fill="#6e9991" opacity="0.62"/>
    <path class="akita-leg diego-leg diego-leg--left" data-part="paw-front" data-silhouette="true"
      d="M49 104 C57 99 68 102 72 111 L70 143 C64 149 52 149 47 142 Z" fill="#285451"/>
    <path class="akita-leg diego-leg diego-leg--right" data-part="paw-far" data-silhouette="true"
      d="M108 111 C112 102 123 99 131 104 L133 142 C128 149 116 149 110 143 Z" fill="#285451"/>
    <path class="diego-paw diego-paw--left" data-part="paw-front-tip" data-silhouette="true"
      d="M42 143 C51 137 68 137 77 144 C70 151 50 152 42 143 Z" fill="#faf3e5"/>
    <path class="diego-paw diego-paw--right" data-part="paw-far-tip" data-silhouette="true"
      d="M103 144 C112 137 129 137 138 143 C130 152 110 151 103 144 Z" fill="#faf3e5"/>
    <path class="diego-toes" data-detail="micro" d="M55 143 L54 148 M65 143 L65 148 M116 143 L116 148 M126 143 L127 148"
      stroke="#285451" stroke-width="1.2" stroke-linecap="round" opacity="0.62"/>
  </g>
  <g class="diego-bow" data-part="bow">
    <path data-silhouette="true" d="M78 77 C67 70 61 75 64 85 C68 93 77 88 86 83 Z" fill="#172a2e"/>
    <path data-silhouette="true" d="M102 77 C113 70 120 76 116 86 C112 93 103 88 94 83 Z" fill="#21383a"/>
    <rect x="84" y="77" width="12" height="12" rx="3" fill="#29291f"/>
  </g>
  <g class="akita-head diego-head" data-part="head">
    <path class="akita-ear diego-ear diego-ear--left" data-part="ear-near" data-silhouette="true"
      d="M50 34 L57 14 L73 31 Z" fill="#285451"/>
    <path class="akita-ear diego-ear diego-ear--right" data-part="ear-far" data-silhouette="true"
      d="M107 31 L123 14 L130 35 Z" fill="#285451"/>
    <path class="diego-ear-inner" data-detail="coat" d="M57 30 L60 21 L68 31 Z M113 30 L121 21 L124 31 Z"
      fill="#faf3e5" opacity="0.28"/>
    <path class="diego-face" data-part="face" data-silhouette="true"
      d="M37 49 C41 28 61 16 89 15 C118 15 138 29 142 50 L135 66 C124 77 108 81 90 81 C70 81 53 77 43 66 Z"
      fill="#3f776f"/>
    <path class="diego-mask" data-part="urajiro" data-detail="coat"
      d="M45 49 C51 37 64 32 77 35 C71 43 72 55 80 63 C66 67 50 61 45 49 Z M135 49 C129 37 116 32 103 35 C109 43 108 55 100 63 C114 67 130 61 135 49 Z"
      fill="#faf3e5" opacity="0.94"/>
    <path class="akita-muzzle diego-muzzle" data-part="muzzle" data-silhouette="true"
      d="M66 51 C73 42 82 40 90 42 C99 40 109 43 115 52 C119 66 106 76 90 78 C74 76 61 66 66 51 Z"
      fill="#faf3e5"/>
    <g class="diego-eyes" data-part="eyes">
      <circle class="diego-eye diego-eye--left" data-detail="face" cx="68" cy="45" r="2.1" fill="#29291f"/>
      <circle class="diego-eye diego-eye--right" data-detail="face" cx="111" cy="45" r="2.1" fill="#29291f"/>
    </g>
    <g class="diego-glasses" data-part="glasses" data-detail="face" fill="#faf3e5" fill-opacity="0.08"
      stroke="#29291f" stroke-width="2.6" stroke-linecap="round" stroke-linejoin="round">
      <path class="diego-lens diego-lens--left" data-part="lens-near" d="M52 36 L80 36 L80 54 L54 55 Z"/>
      <path class="diego-lens diego-lens--right" data-part="lens-far" d="M99 36 L128 37 L126 55 L99 54 Z"/>
      <path class="diego-glasses-bridge" d="M80 42 C86 39 93 39 99 42" fill="none"/>
      <path class="diego-glasses-arm" d="M53 40 L41 37 M127 41 L138 38" fill="none"/>
      <path class="diego-lens-glint" data-detail="micro" d="M57 39 L66 38 M104 39 L113 39"
        stroke="#faf3e5" stroke-width="1.2" opacity="0.8"/>
    </g>
    <path class="diego-brow diego-brow--left" data-detail="face" d="M58 32 L75 31" stroke="#29291f" stroke-width="1.6"/>
    <path class="diego-brow diego-brow--right" data-detail="face" d="M104 31 L121 33" stroke="#29291f" stroke-width="1.6"/>
    <path class="diego-blush" data-detail="face" d="M51 58 L61 60 M129 58 L119 60" stroke="#a86a22" stroke-width="2.2" stroke-linecap="round"/>
    <path class="diego-nose" data-part="nose" data-detail="face" d="M83 55 L97 55 L90 62 Z" fill="#29291f"/>
    <path class="diego-mouth" data-detail="micro" d="M90 62 L90 67 M90 67 L82 70 M90 67 L98 70"
      stroke="#29291f" stroke-width="1.4" stroke-linecap="round" fill="none"/>
  </g>
</svg>
